HIERARCHY
ROOT joint_Root
{
	OFFSET 0.0 0.0 0.0
	CHANNELS 6 Xposition Yposition Zposition Zrotation Xrotation Yrotation 
	JOINT Hips
	{
		OFFSET -0.726466 93.3139 -2.00062
		CHANNELS 6 Xposition Yposition Zposition Zrotation Xrotation Yrotation 
		JOINT Spine
		{
			OFFSET 15.7357 0.0 0.0
			CHANNELS 6 Xposition Yposition Zposition Zrotation Xrotation Yrotation 
			JOINT Chest
			{
				OFFSET 8.98455 -0.406207 0.0
				CHANNELS 6 Xposition Yposition Zposition Zrotation Xrotation Yrotation 
				JOINT Neck
				{
					OFFSET 16.3773 0.0 0.0
					CHANNELS 6 Xposition Yposition Zposition Zrotation Xrotation Yrotation 
					JOINT Head
					{
						OFFSET 6.45672 0.0 0.0
						CHANNELS 6 Xposition Yposition Zposition Zrotation Xrotation Yrotation 
						End Site
						{
							OFFSET 0.0 0.0 0.0
						}
					}
				}
				JOINT Shoulder_L
				{
					OFFSET 12.9942 -0.242716 4.98039
					CHANNELS 6 Xposition Yposition Zposition Zrotation Xrotation Yrotation 
					JOINT UpperArm_L
					{
						OFFSET 5.34809 0.0 0.0
						CHANNELS 6 Xposition Yposition Zposition Zrotation Xrotation Yrotation 
						JOINT LowerArm_L
						{
							OFFSET 24.3286 1.87007e-05 0.0
							CHANNELS 6 Xposition Yposition Zposition Zrotation Xrotation Yrotation 
							JOINT Hand_L
							{
								OFFSET 22.2916 0.0 0.0
								CHANNELS 6 Xposition Yposition Zposition Zrotation Xrotation Yrotation 
								End Site
								{
									OFFSET 0.0 0.0 0.0
								}
							}
						}
					}
				}
				JOINT Shoulder_R
				{
					OFFSET 12.9945 -0.242716 -4.98039
					CHANNELS 6 Xposition Yposition Zposition Zrotation Xrotation Yrotation 
					JOINT UpperArm_R
					{
						OFFSET -5.34813 0.0 0.0
						CHANNELS 6 Xposition Yposition Zposition Zrotation Xrotation Yrotation 
						JOINT LowerArm_R
						{
							OFFSET -24.3289 0.000322201 0.0
							CHANNELS 6 Xposition Yposition Zposition Zrotation Xrotation Yrotation 
							JOINT Hand_R
							{
								OFFSET -22.2915 -0.000108084 0.0
								CHANNELS 6 Xposition Yposition Zposition Zrotation Xrotation Yrotation 
								End Site
								{
									OFFSET 0.0 0.0 0.0
								}
							}
						}
					}
				}
			}
		}
		JOINT UpperLeg_L
		{
			OFFSET -2.19248 -6.46944 0.0
			CHANNELS 6 Xposition Yposition Zposition Zrotation Xrotation Yrotation 
			JOINT LowerLeg_L
			{
				OFFSET 39.0811 0.0 -1.23785e-05
				CHANNELS 6 Xposition Yposition Zposition Zrotation Xrotation Yrotation 
				JOINT Foot_L
				{
					OFFSET 40.9854 0.0 -1.26872e-05
					CHANNELS 6 Xposition Yposition Zposition Zrotation Xrotation Yrotation 
					JOINT Toes_L
					{
						OFFSET 11.7543 0.0 0.0
						CHANNELS 6 Xposition Yposition Zposition Zrotation Xrotation Yrotation 
						End Site
						{
							OFFSET 0.0 0.0 0.0
						}
					}
				}
			}
		}
		JOINT UpperLeg_R
		{
			OFFSET -2.19251 6.46944 0.0
			CHANNELS 6 Xposition Yposition Zposition Zrotation Xrotation Yrotation 
			JOINT LowerLeg_R
			{
				OFFSET -39.0811 -0.00228153 -0.0401928
				CHANNELS 6 Xposition Yposition Zposition Zrotation Xrotation Yrotation 
				JOINT Foot_R
				{
					OFFSET -40.9854 0.0 0.0
					CHANNELS 6 Xposition Yposition Zposition Zrotation Xrotation Yrotation 
					JOINT Toes_R
					{
						OFFSET -11.7543 0.0 0.0
						CHANNELS 6 Xposition Yposition Zposition Zrotation Xrotation Yrotation 
						End Site
						{
							OFFSET 0.0 0.0 0.0
						}
					}
				}
			}
		}
	}
}
MOTION
Frames:	4
Frame Time:	0.0333333
0.000000 0.000000 0.000000 0.000000 0.000000 -0.000000 103.627000 85.717900 175.548000 -84.374500 53.500600 178.016000 15.735700 0.000005 -0.000001 113.381000 80.420300 -113.872000 8.984550 -0.406207 -0.000000 9.916330 7.547170 -1.638710 16.377300 -0.000001 -0.000001 9.690890 12.656000 -0.374652 6.456720 -0.000001 -0.000000 1.701590 14.905000 0.653044 12.994200 -0.242716 4.980390 -88.044100 -3.448380 -60.413800 5.348090 -0.000007 -0.000001 -68.888800 8.020280 10.380900 24.328600 0.000019 0.000005 6.568920 17.837400 -20.605100 22.291600 -0.000001 0.000005 1.801580 5.477650 -5.658690 12.994500 -0.242716 -4.980390 89.038700 2.814330 -71.132400 -5.348130 -0.000001 -0.000004 -42.450400 7.727450 -45.150100 -24.328900 0.000322 -0.000009 4.736210 5.229180 -42.279600 -22.291500 -0.000108 -0.000004 9.149280 5.531480 -7.860520 -2.192480 -6.469440 -0.000000 174.356000 -22.594800 -37.475600 39.081100 -0.000007 -0.000012 0.037378 -0.044145 40.252800 40.985400 -0.000006 -0.000013 9.176280 -14.239300 -54.158900 11.754300 -0.000000 0.000003 -0.002578 -0.035733 -18.029900 -2.192510 6.469440 -0.000001 161.874000 19.144200 -168.666000 -39.081100 -0.002282 -0.040193 -0.072241 0.103261 36.183000 -40.985400 0.000008 0.000006 -14.166100 -5.226670 -59.261500 -11.754300 -0.000006 -0.000006 -0.081656 -0.396549 -33.043600
0.000000 0.000000 0.000000 0.000000 0.000000 -0.000000 106.428000 85.515900 171.364000 -85.430500 52.450700 179.675000 15.735700 0.000005 -0.000001 112.313000 80.328600 -113.100000 8.984550 -0.406207 -0.000000 10.240100 7.278970 -2.228200 16.377300 -0.000001 -0.000001 10.255900 12.332000 -0.818008 6.456720 -0.000001 -0.000000 1.711240 14.824700 0.842519 12.994200 -0.242716 4.980390 -88.092800 -3.411800 -60.770900 5.348090 -0.000007 -0.000001 -70.447500 9.433550 7.706250 24.328600 0.000019 0.000005 7.000250 20.957400 -18.948400 22.291600 -0.000001 0.000005 1.150770 5.478060 -5.676260 12.994500 -0.242716 -4.980390 89.093600 2.604250 -70.801900 -5.348130 -0.000001 -0.000004 -44.545400 11.144100 -41.470300 -24.328900 0.000322 -0.000009 4.450580 4.626320 -43.987700 -22.291500 -0.000108 -0.000004 8.723780 5.538470 -8.175240 -2.192480 -6.469440 -0.000000 174.025000 -22.813400 -35.607400 39.081100 -0.000007 -0.000012 -0.107890 0.105813 45.558000 40.985400 -0.000006 -0.000013 7.872890 -13.870900 -60.638000 11.754300 -0.000000 0.000003 -0.000130 -0.002162 -16.665300 -2.192510 6.469440 -0.000001 160.899000 15.849200 -170.205000 -39.081100 -0.002282 -0.040193 0.119300 -0.127658 42.267700 -40.985400 0.000008 0.000006 -10.853200 -8.383270 -50.384000 -11.754300 -0.000006 -0.000006 -0.118243 -0.487734 -37.027700
0.000000 0.000000 0.000000 0.000000 0.000000 -0.000000 108.918000 85.606400 167.531000 -85.090700 50.761700 -179.943000 15.735700 0.000005 -0.000001 110.309000 80.474400 -110.913000 8.984550 -0.406207 -0.000000 10.184900 6.556870 -1.793760 16.377300 -0.000001 -0.000001 10.314800 12.297100 -1.211290 6.456720 -0.000001 -0.000000 2.422900 15.083000 0.384300 12.994200 -0.242716 4.980390 -88.181700 -3.254460 -60.786600 5.348090 -0.000007 -0.000001 -72.043500 12.039900 5.001120 24.328600 0.000019 0.000005 7.374990 21.405400 -19.528200 22.291600 -0.000001 0.000005 0.797342 5.496290 -6.383530 12.994500 -0.242716 -4.980390 89.132500 2.459870 -70.567200 -5.348130 -0.000001 -0.000004 -45.313400 15.873300 -38.087700 -24.328900 0.000322 -0.000009 4.858670 5.006360 -44.255200 -22.291500 -0.000108 -0.000004 7.678910 5.544320 -8.441230 -2.192480 -6.469440 -0.000000 174.433000 -23.173300 -32.807500 39.081100 -0.000007 -0.000012 -0.207981 0.185499 48.270800 40.985400 -0.000006 -0.000013 7.277870 -12.844000 -65.654500 11.754300 -0.000000 0.000003 -0.000003 -0.000045 -16.579300 -2.192510 6.469440 -0.000001 163.438000 11.092200 -174.054000 -39.081100 -0.002282 -0.040193 0.263253 -0.221099 49.623600 -40.985400 0.000008 0.000006 -2.643550 -13.328900 -40.143400 -11.754300 -0.000006 -0.000006 -0.045239 -0.280353 -28.105500
0.000000 0.000000 0.000000 0.000000 0.000000 -0.000000 111.151000 86.014100 164.105000 -85.983400 47.909500 -179.253000 15.735700 0.000005 -0.000001 106.556000 80.788000 -107.176000 8.984550 -0.406207 -0.000000 9.953020 5.205630 -1.693050 16.377300 -0.000001 -0.000001 9.894110 12.085800 -1.541310 6.456720 -0.000001 -0.000000 2.508920 15.441700 0.221674 12.994200 -0.242716 4.980390 -88.203900 -3.272420 -61.218400 5.348090 -0.000007 -0.000001 -73.232200 16.005100 1.822110 24.328600 0.000019 0.000005 6.892960 17.258200 -22.177200 22.291600 -0.000001 0.000005 1.183650 5.521490 -7.420740 12.994500 -0.242716 -4.980390 89.084500 2.532730 -70.120500 -5.348130 -0.000001 -0.000004 -46.190300 20.695100 -34.728100 -24.328900 0.000322 -0.000009 6.234710 6.642610 -43.372200 -22.291500 -0.000108 -0.000004 6.677800 5.549740 -8.694410 -2.192480 -6.469440 -0.000000 174.077000 -21.733300 -29.531000 39.081100 -0.000007 -0.000012 -0.270034 0.239855 48.387900 40.985400 -0.000006 -0.000013 6.877500 -12.019800 -68.891400 11.754300 -0.000000 0.000003 -0.000007 -0.000102 -16.581600 -2.192510 6.469440 -0.000001 165.719000 7.830230 -178.359000 -39.081100 -0.002282 -0.040193 0.260497 -0.167985 56.858500 -40.985400 0.000008 0.000006 2.001890 -10.667100 -36.345100 -11.754300 -0.000006 -0.000006 -0.021343 -0.174619 -23.710000
